<?xml version="1.0" encoding="UTF-8"?>
<svg xmlns="http://www.w3.org/2000/svg" xmlns:xlink="http://www.w3.org/1999/xlink" width="512pt" height="512pt" viewBox="0 0 512 512" version="1.1">
<defs>
<linearGradient id="linear0" gradientUnits="userSpaceOnUse" x1="112.56566" y1="20.31528" x2="113.44847" y2="208.35434" gradientTransform="matrix(2.265487,0,0,2.265487,0,0)">
<stop offset="0" style="stop-color:rgb(100%,32.54905%,0%);stop-opacity:1;"/>
<stop offset="1" style="stop-color:rgb(27.058824%,7.843137%,35.294118%);stop-opacity:1;"/>
</linearGradient>
<linearGradient id="linear1" gradientUnits="userSpaceOnUse" x1="113" y1="35.3125" x2="113" y2="189.08431" gradientTransform="matrix(2.265487,0,0,2.265487,0,0)">
<stop offset="0" style="stop-color:rgb(100%,62.352941%,43.921569%);stop-opacity:1;"/>
<stop offset="1" style="stop-color:rgb(54.509804%,15.686275%,71.372549%);stop-opacity:1;"/>
</linearGradient>
</defs>
<g id="surface3092694">
<rect x="0" y="0" width="512" height="512" style="fill:rgb(20.392157%,28.627451%,36.862745%);fill-opacity:1;stroke:none;"/>
<path style=" stroke:none;fill-rule:nonzero;fill:url(#linear0);" d="M 256 464 C 141.304688 464 48 370.695312 48 256 C 48 141.304688 141.304688 48 256 48 C 370.695312 48 464 141.304688 464 256 C 464 370.695312 370.695312 464 256 464 Z M 256 64 C 150.136719 64 64 150.136719 64 256 C 64 361.863281 150.136719 448 256 448 C 361.863281 448 448 361.863281 448 256 C 448 150.136719 361.863281 64 256 64 Z M 256 64 "/>
<path style=" stroke:none;fill-rule:nonzero;fill:url(#linear1);" d="M 256 432 C 158.953125 432 80 353.046875 80 256 C 80 158.953125 158.953125 80 256 80 C 353.046875 80 432 158.953125 432 256 C 432 353.046875 353.046875 432 256 432 Z M 256 96 C 167.777344 96 96 167.777344 96 256 C 96 344.222656 167.777344 416 256 416 C 344.222656 416 416 344.222656 416 256 C 416 167.777344 344.222656 96 256 96 Z M 256 96 "/>
<path style=" stroke:none;fill-rule:nonzero;fill:rgb(92.54905%,94.117647%,94.509804%);fill-opacity:1;" d="M 178.214844 206.523438 L 179.484375 200.496094 L 218.96875 200.496094 L 217.703125 206.523438 C 215.90625 207.578125 213.949219 208.5 211.835938 209.285156 C 209.71875 210.085938 207.605469 210.699219 205.492188 211.121094 L 163.148438 265.039062 L 155.535156 300.878906 C 157.546875 301.195312 159.5 301.777344 161.40625 302.625 C 163.308594 303.46875 165.050781 304.421875 166.636719 305.476562 L 165.371094 311.503906 L 116.523438 311.503906 L 117.792969 305.476562 C 119.800781 304.527344 122.023438 303.628906 124.453125 302.78125 C 126.886719 301.9375 129.316406 301.300781 131.75 300.878906 L 139.363281 265.199219 L 118.746094 211.121094 C 116.417969 210.699219 114.230469 210.085938 112.175781 209.285156 C 110.105469 208.5 108.332031 207.578125 106.851562 206.523438 L 108.121094 200.496094 L 159.660156 200.496094 L 158.390625 206.523438 C 156.910156 207.367188 155.113281 208.214844 153 209.058594 C 150.886719 209.90625 148.453125 210.59375 145.703125 211.121094 L 159.5 253.78125 L 189.792969 211.121094 C 187.570312 210.59375 185.457031 209.925781 183.449219 209.128906 C 181.4375 208.339844 179.695312 207.472656 178.214844 206.523438 Z M 222.460938 275.03125 L 224.046875 298.34375 C 225.101562 299.398438 227.003906 300.457031 229.753906 301.511719 C 232.503906 302.570312 235.410156 303.097656 238.476562 303.097656 C 241.753906 303.097656 244.820312 302.8125 247.675781 302.238281 C 250.527344 301.648438 252.992188 300.722656 255.058594 299.453125 C 257.113281 298.183594 258.722656 296.523438 259.886719 294.46875 C 261.046875 292.398438 261.628906 289.882812 261.628906 286.925781 C 261.628906 283.117188 260.625 279.863281 258.617188 277.160156 C 256.609375 274.472656 254.125 272.015625 251.164062 269.796875 C 248.203125 267.578125 244.957031 265.386719 241.421875 263.226562 C 237.871094 261.050781 234.617188 258.589844 231.65625 255.839844 C 228.695312 253.09375 226.210938 249.867188 224.203125 246.167969 C 222.195312 242.46875 221.191406 237.921875 221.191406 232.53125 C 221.191406 226.925781 222.300781 222.011719 224.519531 217.78125 C 226.742188 213.550781 229.808594 210.011719 233.71875 207.15625 C 237.628906 204.300781 242.28125 202.15625 247.675781 200.722656 C 253.066406 199.300781 258.988281 198.59375 265.4375 198.59375 C 271.886719 198.59375 277.78125 199.039062 283.128906 199.929688 C 288.460938 200.835938 293.136719 202.238281 297.152344 204.144531 C 296.625 206.257812 295.9375 208.6875 295.089844 211.4375 C 294.246094 214.1875 293.324219 216.90625 292.328125 219.59375 C 291.316406 222.296875 290.3125 224.835938 289.3125 227.207031 C 288.300781 229.59375 287.425781 231.578125 286.6875 233.164062 L 280.183594 233.164062 L 277.488281 211.4375 C 276.007812 210.59375 274.03125 209.957031 271.550781 209.535156 C 269.058594 209.113281 266.492188 208.902344 263.851562 208.902344 C 261.101562 208.902344 258.542969 209.1875 256.167969 209.761719 C 253.785156 210.351562 251.722656 211.25 249.984375 212.457031 C 248.234375 213.679688 246.828125 215.242188 245.769531 217.148438 C 244.714844 219.050781 244.183594 221.324219 244.183594 223.964844 C 244.183594 227.667969 245.21875 230.890625 247.289062 233.640625 C 249.34375 236.386719 251.878906 238.894531 254.902344 241.160156 C 257.90625 243.441406 261.207031 245.714844 264.800781 247.980469 C 268.394531 250.261719 271.703125 252.804688 274.722656 255.613281 C 277.730469 258.410156 280.265625 261.65625 282.335938 265.355469 C 284.390625 269.058594 285.417969 273.496094 285.417969 278.675781 C 285.417969 289.882812 281.273438 298.476562 272.980469 304.457031 C 264.671875 310.425781 252.800781 313.40625 237.367188 313.40625 C 233.984375 313.40625 230.578125 313.195312 227.148438 312.773438 C 223.707031 312.351562 220.449219 311.769531 217.386719 311.027344 C 214.320312 310.289062 211.621094 309.496094 209.296875 308.648438 C 206.972656 307.804688 205.28125 306.90625 204.222656 305.953125 C 204.855469 303.417969 205.648438 300.75 206.601562 297.957031 C 207.550781 295.148438 208.558594 292.339844 209.613281 289.527344 C 210.671875 286.734375 211.757812 284.09375 212.875 281.601562 C 213.980469 279.125 215.007812 276.933594 215.957031 275.03125 Z M 393.097656 269.003906 L 385.640625 304.527344 C 383 305.902344 380.015625 307.140625 376.695312 308.242188 C 373.355469 309.359375 369.972656 310.289062 366.542969 311.027344 C 363.101562 311.769531 359.792969 312.351562 356.621094 312.773438 C 353.449219 313.195312 350.699219 313.40625 348.375 313.40625 C 341.1875 313.40625 334.578125 312.507812 328.550781 310.710938 C 322.527344 308.914062 317.34375 306.164062 313.011719 302.464844 C 308.675781 298.765625 305.324219 294.113281 302.953125 288.507812 C 300.566406 282.90625 299.371094 276.296875 299.371094 268.6875 C 299.371094 258.21875 300.9375 248.707031 304.0625 240.140625 C 307.171875 231.578125 311.667969 224.199219 317.542969 218.007812 C 323.402344 211.832031 330.613281 207.050781 339.175781 203.667969 C 347.742188 200.285156 357.414062 198.59375 368.199219 198.59375 C 371.6875 198.59375 375.152344 198.722656 378.597656 198.976562 C 382.023438 199.25 385.296875 199.621094 388.40625 200.085938 C 391.53125 200.570312 394.363281 201.152344 396.902344 201.832031 C 399.4375 202.527344 401.5 203.296875 403.085938 204.144531 C 402.769531 205.730469 402.242188 207.761719 401.5 210.238281 C 400.761719 212.730469 399.914062 215.402344 398.964844 218.257812 C 398.011719 221.113281 397.007812 223.964844 395.949219 226.820312 C 394.894531 229.675781 393.835938 232.265625 392.777344 234.589844 L 386.277344 234.589844 L 382.628906 210.488281 C 381.148438 209.957031 379.066406 209.558594 376.375 209.285156 C 373.671875 209.027344 371.160156 208.902344 368.832031 208.902344 C 361.75 208.902344 355.542969 210.613281 350.210938 214.042969 C 344.863281 217.488281 340.421875 222.117188 336.890625 227.929688 C 333.339844 233.746094 330.695312 240.457031 328.960938 248.070312 C 327.207031 255.683594 326.332031 263.664062 326.332031 272.015625 C 326.332031 277.515625 326.964844 282.21875 328.234375 286.132812 C 329.503906 290.042969 331.226562 293.265625 333.398438 295.804688 C 335.558594 298.34375 338.097656 300.191406 341.011719 301.355469 C 343.914062 302.519531 347.054688 303.097656 350.4375 303.097656 C 353.503906 303.097656 356.703125 302.675781 360.042969 301.832031 C 363.363281 300.984375 365.976562 299.980469 367.882812 298.816406 L 374.222656 269.003906 C 371.582031 268.792969 369.097656 268.265625 366.769531 267.417969 C 364.445312 266.574219 362.382812 265.566406 360.585938 264.40625 L 361.855469 258.378906 L 405.148438 258.378906 L 403.878906 264.40625 C 402.714844 265.355469 401.265625 266.226562 399.53125 267.011719 C 397.777344 267.8125 395.632812 268.476562 393.097656 269.003906 Z M 393.097656 269.003906 "/>
</g>
</svg>
